# AST/ASF file generated using VICON BodyLanguage
# -----------------------------------------------
:version 1.10
:name VICON
:units
  mass 1.0
  length 0.45
  angle deg
:documentation
   .ast/.asf automatically generated from VICON data using
   VICON BodyBuilder and BodyLanguage model FoxedUp or BRILLIANT.MOD
:root
   order TX TY TZ RX RY RZ
   axis XYZ
   position 0 0 0  
   orientation 0 0 0 
:bonedata
  begin
     id 1 
     name lhipjoint
     direction 0.521689 -0.742065 0.420928 
     length 2.47002 
     axis 0 0 0  XYZ
  end
  begin
     id 2 
     name lfemur
     direction 0.34202 -0.939693 0  
     length 7.24654  
     axis 0 0 20  XYZ
    dof rx ry rz
    limits (-160.0 20.0)
           (-70.0 70.0)
           (-60.0 70.0)
  end
  begin
     id 3 
     name ltibia
     direction 0.34202 -0.939693 0   
     length 8.04849   
     axis 0 0 20   XYZ
    dof rx
    limits (-10.0 170.0)
  end
  begin
     id 4 
     name lfoot
     direction 0.0745411 -0.2048 0.975961   
     length 1.72367   
     axis -90 7.62852e-016 20   XYZ
    dof rx rz
    limits (-45.0 90.0)
           (-70.0 20.0)
  end
  begin
     id 5 
     name ltoes
     direction 1.53556e-011 -4.21901e-011 1   
     length 0.87311   
     axis -90 7.62852e-016 20   XYZ
    dof rx
    limits (-90.0 20.0)
  end
  begin
     id 6 
     name rhipjoint
     direction -0.52849 -0.738415 0.418857   
     length 2.48223  
     axis 0 0 0  XYZ 
  end
  begin
     id 7 
     name rfemur
     direction -0.34202 -0.939693 0   
     length 7.15571   
     axis 0 0 -20   XYZ
    dof rx ry rz
    limits (-160.0 20.0)
           (-70.0 70.0)
           (-70.0 60.0)
  end
  begin
     id 8 
     name rtibia
     direction -0.34202 -0.939693 0   
     length 7.81659   
     axis 0 0 -20   XYZ
    dof rx
    limits (-10.0 170.0)
 end
 begin
     id 9 
     name rfoot
     direction -0.0917348 -0.252039 0.963359   
     length 1.84382  
     axis -90 -7.62852e-016 -20   XYZ
    dof rx rz
    limits (-45.0 90.0)
           (-20.0 70.0)
  end
  begin
     id 10 
     name rtoes
     direction -1.53551e-011 -4.21879e-011 1   
     length 0.927771   
     axis -90 -7.62852e-016 -20   XYZ
    dof rx
    limits (-90.0 20.0)
  end
  begin
     id 11 
     name lowerback
     direction 0.00583058 0.999822 0.0179296   
     length 2.1429   
     axis 0 0 0   XYZ
    dof rx ry rz
    limits (-20.0 45.0)
           (-30.0 30.0)
           (-30.0 30.0)
  end
  begin
     id 12 
     name upperback
     direction -0.0137999 0.999752 -0.0175071   
     length 2.14252   
     axis 0 0 0   XYZ
    dof rx ry rz
    limits (-20.0 45.0)
           (-30.0 30.0)
           (-30.0 30.0)
  end
  begin
     id 13 
     name thorax
     direction -0.0158036 0.99955 -0.0254909   
     length 2.1383   
     axis 0 0 0   XYZ
    dof rx ry rz
    limits (-20.0 45.0)
           (-30.0 30.0)
           (-30.0 30.0)
  end
  begin
     id 14 
     name lowerneck
     direction -0.0101179 0.999403 -0.0330262   
     length 1.65808   
     axis 0 0 0   XYZ
    dof rx ry rz
    limits (-20.0 45.0)
           (-30.0 30.0)
           (-30.0 30.0)
  end
  begin
     id 15 
     name upperneck
     direction 0.0497734 0.995978 -0.074501   
     length 1.5897   
     axis 0 0 0   XYZ
    dof rx ry rz
    limits (-20.0 45.0)
           (-30.0 30.0)
           (-30.0 30.0)
  end
  begin
     id 16
     name head
     direction 0.0189524 0.999519 -0.0245438  
     length 1.74024  
     axis 0 0 0   XYZ
    dof rx ry rz
    limits (-20.0 45.0)
           (-30.0 30.0)
           (-30.0 30.0)
  end
  begin
     id 17 
     name lclavicle
     direction 0.945604 0.324422 0.0241537  
     length 3.59089  
     axis 0 0 0   XYZ
    dof ry rz
    limits (-20.0 10.0)
           (0.0 20.0)
  end
  begin
     id 18 
     name lhumerus
     direction 1 -4.48964e-011 -2.63524e-027   
     length 5.2391   
     axis 180 -30 -90   XYZ
    dof rx ry rz
    limits (-60.0 90.0)
           (-90.0 90.0)
           (-90.0 90.0)
  end
  begin
     id 19
     name lradius
     direction 1 -4.48969e-011 3.86978e-028   
     length 3.31467   
     axis 180 -30 -90   XYZ
    dof rx
    limits (-10.0 170.0)
  end
  begin
     id 20
     name lwrist
     direction 1 -4.48963e-011 7.20928e-028   
     length 1.65734   
     axis -5.52449e-016 90 90   XYZ
    dof ry
    limits (-180.0 0.0)
 end
  begin
     id 21 
     name lhand
     direction 1 -4.48964e-011 1.44186e-027   
     length 0.9659   
     axis -9.20027e-016 90 90   XYZ
    dof rx rz
    limits (-90.0 90.0)
           (-45.0 45.0)
  end
  begin
     id 22 
     name lfingers
     direction 1 -4.48965e-011 2.88371e-027   
     length 0.778733   
     axis -1.84005e-015 90 90   XYZ
    dof rx
    limits (0.0 90.0)
  end
  begin
     id 23
     name lthumb
     direction 0.707107 -6.34931e-011 0.707107   
     length 1.11811   
     axis -90 45 2.85299e-015   XYZ
    dof rx rz
    limits (-45.0 45.0)
           (-45.0 45.0)
  end
  begin
     id 24 
     name rclavicle
     direction -0.923762 0.370785 0.0958234   
     length 3.54196  
     axis 0 0 0   XYZ 
    dof ry rz
    limits (-10.0 20.0)
           (-20.0 0.0)
  end
  begin
     id 25 
     name rhumerus
     direction -1 -4.48966e-011 1.18702e-017  
     length 5.30252   
     axis 180 30 90   XYZ
    dof rx ry rz
    limits (-90.0 60.0)
           (-90.0 90.0)
           (-90.0 90.0)
  end
  begin
     id 26 
     name rradius
     direction -1 -4.48966e-011 4.46736e-027   
     length 3.67875   
     axis 180 30 90   XYZ
    dof rx
    limits (-10.0 170.0)
  end
  begin
     id 27 
     name rwrist
     direction -1 -4.48966e-011 7.20928e-028   
     length 1.83937   
     axis -5.52449e-016 -90 -90   XYZ
    dof ry
    limits (-180.0 0.0)
  end
  begin
     id 28
     name rhand
     direction -1 -4.48973e-011 1.44186e-027   
     length 0.594811   
     axis -9.20027e-016 -90 -90   XYZ
    dof rx rz
    limits (-90.0 90.0)
           (-45.0 45.0)
  end
  begin
     id 29
     name rfingers
     direction -1 -4.48963e-011 2.88371e-027   
     length 0.479552   
     axis -1.84005e-015 -90 -90   XYZ
    dof rx
    limits (0.0 90.0)
  end
  begin
     id 30
     name rthumb
     direction -0.707107 -6.34932e-011 0.707107   
     length 0.688544   
     axis -90 -45 -2.85299e-015   XYZ
    dof rx rz
    limits (-45.0 45.0)
           (-45.0 45.0)
  end
:hierarchy
  begin
    root lhipjoint rhipjoint lowerback
    lhipjoint lfemur
    lfemur ltibia
    ltibia lfoot
    lfoot ltoes
    rhipjoint rfemur
    rfemur rtibia
    rtibia rfoot
    rfoot rtoes
    lowerback upperback
    upperback thorax
    thorax lowerneck lclavicle rclavicle
    lowerneck upperneck
    upperneck head
    lclavicle lhumerus
    lhumerus lradius
    lradius lwrist
    lwrist lhand lthumb
    lhand lfingers
    rclavicle rhumerus
    rhumerus rradius
    rradius rwrist
    rwrist rhand rthumb
    rhand rfingers
  end

#!OML:ASF E:\acrobat2\Project_11_07_03\Capture day 1\Session 1\Acrobat.ASF
:FULLY-SPECIFIED
:DEGREES
448
root 8.289 18.2384 -31.6356 2.70504 25.8296 -1.35864
lowerback -3.49815 1.09136 0.476505
upperback -3.22355 1.4539 -0.702485
thorax -1.31591 0.717772 -0.953708
lowerneck -0.342715 -4.85975 -0.752269
upperneck 5.99197 -6.71816 4.53224
head 2.14281 -3.25715 1.42357
rclavicle 6.72141e-014 5.56597e-015
rhumerus -40.3202 -0.470034 -84.141
rradius 25.3003
rwrist 2.67828
rhand -6.21508 -41.1551
rfingers 7.12502
rthumb 19.6256 -70.1845
lclavicle 6.72141e-014 5.56597e-015
lhumerus -33.1873 -16.5811 90.562
lradius 19.5912
lwrist 11.3022
lhand -12.0524 -12.0347
lfingers 7.12502
lthumb 14.0065 17.4734
rfemur -0.369653 5.59935 14.8289
rtibia 0.108028
rfoot -27.4875 -33.5387
rtoes 22.4542
lfemur 4.56001 -0.936069 -15.3106
ltibia 2.51171
lfoot -20.009 2.78216
ltoes 30.3916
449
root 8.28706 18.2389 -31.6334 2.67937 25.8557 -1.36886
lowerback -3.5531 1.07017 0.411484
upperback -3.16448 1.42718 -0.647032
thorax -1.2279 0.706515 -0.859158
lowerneck -0.455434 -4.78402 -0.887251
upperneck 6.17353 -6.63091 4.69023
head 2.23261 -3.20828 1.49569
rclavicle -4.83047e-014 -3.18055e-015
rhumerus -40.253 -0.337163 -84.132
rradius 25.3295
rwrist 2.63339
rhand -6.33698 -41.0347
rfingers 7.12502
rthumb 19.5084 -70.076
lclavicle -4.83047e-014 -3.18055e-015
lhumerus -33.085 -16.5108 90.5802
lradius 19.6084
lwrist 11.2948
lhand -12.0461 -12.0047
lfingers 7.12502
lthumb 14.0126 17.503
rfemur -0.328598 5.61087 14.8547
rtibia 0.110806
rfoot -27.6576 -33.4633
rtoes 22.7975
lfemur 4.57979 -0.824814 -15.2527
ltibia 2.52101
lfoot -19.902 2.62531
ltoes 30.5007
450
root 8.28604 18.2383 -31.632 2.67496 25.8816 -1.36967
lowerback -3.63278 1.04399 0.428215
upperback -3.11394 1.39159 -0.65138
thorax -1.13158 0.688762 -0.871577
lowerneck -0.167949 -4.88576 -0.732204
upperneck 5.64879 -6.73173 4.40809
head 1.99351 -3.27445 1.38701
rclavicle 1.16289e-014 -1.59028e-015
rhumerus -40.2083 -0.232807 -84.1964
rradius 25.3646
rwrist 2.61941
rhand -6.39668 -40.8805
rfingers 7.12502
rthumb 19.451 -69.9277
lclavicle 1.16289e-014 -1.59028e-015
lhumerus -32.989 -16.4391 90.5037
lradius 19.6147
lwrist 11.2927
lhand -11.9647 -11.9948
lfingers 7.12502
lthumb 14.0911 17.5074
rfemur -0.327078 5.56703 14.8539
rtibia 0.135301
rfoot -27.7145 -33.4095
rtoes 23.1276
lfemur 4.57541 -0.770521 -15.2195
ltibia 2.53484
lfoot -19.8701 2.50605
ltoes 30.9952
451
root 8.28598 18.2374 -31.6318 2.70211 25.8948 -1.31797
lowerback -3.758 1.02056 0.206413
upperback -3.01964 1.36625 -0.521133
thorax -0.973371 0.681463 -0.610923
lowerneck -0.435686 -4.76734 -0.982977
upperneck 5.96319 -6.59272 4.59843
head 2.1584 -3.19759 1.48544
rclavicle 3.27249e-014 3.57812e-015
rhumerus -40.055 0.0229855 -84.0892
rradius 25.3468
rwrist 2.5126
rhand -6.57925 -40.6539
rfingers 7.12502
rthumb 19.2754 -69.7187
lclavicle 3.27249e-014 3.57812e-015
lhumerus -32.8087 -16.3253 90.6364
lradius 19.5859
lwrist 11.3211
lhand -11.9292 -11.9754
lfingers 7.12502
lthumb 14.1252 17.5244
rfemur -0.331767 5.55573 14.7931
rtibia 0.14146
rfoot -27.7726 -33.3745
rtoes 23.5575
lfemur 4.55646 -0.840491 -15.2872
ltibia 2.55409
lfoot -19.9482 2.57054
ltoes 31.1806
452
root 8.28383 18.2376 -31.6305 2.70779 25.909 -1.27855
lowerback -3.47247 1.02566 0.356935
upperback -3.18929 1.36894 -0.69129
thorax -1.29966 0.677612 -0.877356
lowerneck -0.263438 -4.88519 -0.689378
upperneck 5.78734 -6.73403 4.33192
head 2.05053 -3.27291 1.3519
rclavicle 3.10353e-014 6.75868e-015
rhumerus -40.237 -0.0333688 -84.3445
rradius 25.2327
rwrist 2.4931
rhand -6.72578 -40.4885
rfingers 7.12502
rthumb 19.1345 -69.5672
lclavicle 3.10353e-014 6.75868e-015
lhumerus -33.1278 -16.6906 90.5656
lradius 19.6774
lwrist 11.5351
lhand -11.9648 -11.8845
lfingers 7.12502
lthumb 14.0909 17.6177
rfemur -0.301746 5.59734 14.7719
rtibia 0.108463
rfoot -27.74 -33.4502
rtoes 23.3873
lfemur 4.53911 -0.879206 -15.3228
ltibia 2.58517
lfoot -19.9576 2.50142
ltoes 31.6007
453
root 8.2804 18.2383 -31.629 2.67362 25.9168 -1.3066
lowerback -3.56748 1.01316 0.215458
upperback -3.10106 1.35598 -0.575323
thorax -1.16203 0.675195 -0.676603
lowerneck -0.543967 -4.81552 -0.844528
upperneck 6.19016 -6.66165 4.44766
head 2.24215 -3.22724 1.40736
rclavicle 3.97072e-014 -3.97569e-015
rhumerus -40.0658 0.191089 -84.284
rradius 25.1707
rwrist 2.39146
rhand -6.65125 -40.4374
rfingers 7.12502
rthumb 19.2062 -69.509
lclavicle 3.97072e-014 -3.97569e-015
lhumerus -32.9507 -16.5486 90.6221
lradius 19.6038
lwrist 11.4938
lhand -11.8863 -12.0238
lfingers 7.12502
lthumb 14.1666 17.4731
rfemur -0.229977 5.787 14.8448
rtibia 0.0357583
rfoot -27.8132 -33.5629
rtoes 23.1282
lfemur 4.52077 -0.879472 -15.2585
ltibia 2.63947
lfoot -19.9825 2.3424
ltoes 31.9314
454
root 8.27806 18.2386 -31.6272 2.66652 25.9315 -1.30395
lowerback -3.59738 1.01328 0.16107
upperback -3.06721 1.35746 -0.560106
thorax -1.11211 0.677105 -0.629502
lowerneck -0.211215 -5.00577 -0.486201
upperneck 5.5277 -6.86564 3.8789
head 1.93157 -3.34915 1.17428
rclavicle -4.32357e-014 -9.54166e-015
rhumerus -40.0176 0.18556 -84.2763
rradius 25.1848
rwrist 2.44491
rhand -6.58031 -40.5115
rfingers 7.12502
rthumb 19.2744 -69.5763
lclavicle -4.32357e-014 -9.54166e-015
lhumerus -32.8574 -16.5544 90.6148
lradius 19.5812
lwrist 11.5469
lhand -11.7679 -12.1368
lfingers 7.12502
lthumb 14.2807 17.3522
rfemur -0.159381 5.96458 14.8747
rtibia -0.0331997
rfoot -28.0222 -33.636
rtoes 23.3276
lfemur 4.48323 -0.799782 -15.2178
ltibia 2.727
lfoot -19.9387 2.2509
ltoes 31.3298
455
root 8.27812 18.2381 -31.6263 2.69698 25.9618 -1.20922
lowerback -3.60053 1.00205 0.0749604
upperback -3.04971 1.34442 -0.587081
thorax -1.09383 0.671787 -0.608984
lowerneck -0.599906 -4.84394 -0.890443
upperneck 6.30608 -6.70575 4.48469
head 2.29538 -3.24665 1.42382
rclavicle 1.15295e-014 -2.38542e-015
rhumerus -39.9942 0.22372 -84.3112
rradius 25.2108
rwrist 2.46275
rhand -6.61742 -40.6016
rfingers 7.12502
rthumb 19.2387 -69.67
lclavicle 1.15295e-014 -2.38542e-015
lhumerus -32.83 -16.6102 90.6146
lradius 19.6119
lwrist 11.6166
lhand -11.8305 -11.9651
lfingers 7.12502
lthumb 14.2203 17.5281
rfemur -0.137546 5.8548 14.765
rtibia -0.0353659
rfoot -27.9296 -33.665
rtoes 23.1116
lfemur 4.43056 -0.729392 -15.3105
ltibia 2.85151
lfoot -19.8985 2.24166
ltoes 30.7742
456
root 8.27923 18.2373 -31.6262 2.72893 25.9945 -1.11395
lowerback -3.60267 0.967065 -0.0119074
upperback -3.0364 1.29994 -0.584073
thorax -1.08141 0.651005 -0.558228
lowerneck -0.232664 -5.03974 -0.58185
upperneck 5.61438 -6.91379 3.89978
head 1.96965 -3.37312 1.19457
rclavicle -3.72473e-014 1.19271e-015
rhumerus -39.9887 0.324682 -84.3105
rradius 25.2554
rwrist 2.48642
rhand -6.5897 -40.5451
rfingers 7.12502
rthumb 19.2654 -69.6109
lclavicle -3.72473e-014 1.19271e-015
lhumerus -32.7582 -16.3886 90.5507
lradius 19.5431
lwrist 11.5268
lhand -11.9869 -11.8208
lfingers 7.12502
lthumb 14.0696 17.6829
rfemur -0.146428 5.64903 14.6307
rtibia -0.00011639
rfoot -27.7587 -33.5589
rtoes 22.9383
lfemur 4.35811 -0.663529 -15.4166
ltibia 3.01001
lfoot -19.9086 2.16886
ltoes 30.4837
457
root 8.2779 18.2372 -31.625 2.71623 26.0048 -1.13178
lowerback -3.60947 0.942413 -0.0287349
upperback -3.01566 1.26765 -0.547214
thorax -1.05779 0.635461 -0.511519
lowerneck -0.373986 -4.92492 -0.815859
upperneck 5.90091 -6.78093 4.16479
head 2.10629 -3.29976 1.31533
rclavicle -3.73218e-014 -6.36111e-015
rhumerus -39.9256 0.37727 -84.2872
rradius 25.2381
rwrist 2.56978
rhand -6.49857 -40.4412
rfingers 7.12502
rthumb 19.353 -69.4982
lclavicle -3.73218e-014 -6.36111e-015
lhumerus -32.646 -16.14 90.4711
lradius 19.4433
lwrist 11.4112
lhand -12.1864 -11.81
lfingers 7.12502
lthumb 13.8774 17.707
rfemur -0.140726 5.66288 14.6551
rtibia 0.0101178
rfoot -27.8673 -33.4826
rtoes 23.1822
lfemur 4.27953 -0.547874 -15.3599
ltibia 3.17432
lfoot -19.876 2.02612
ltoes 29.6095
